<svg version="1.1" xmlns="http://www.w3.org/2000/svg" width="22" height="20" viewBox="0 0 35 28">
<path fill="#FFFFFF" d="M28 19.5v-15c0-0.266-0.234-0.5-0.5-0.5h-25c-0.266 0-0.5 0.234-0.5 0.5v15c0 0.266 0.234 0.5 0.5 0.5h25c0.266 0 0.5-0.234 0.5-0.5zM30 4.5v15c0 1.375-1.125 2.5-2.5 2.5h-11.5v2h5.5c0.281 0 0.5 0.219 0.5 0.5v1c0 0.281-0.219 0.5-0.5 0.5h-13c-0.281 0-0.5-0.219-0.5-0.5v-1c0-0.281 0.219-0.5 0.5-0.5h5.5v-2h-11.5c-1.375 0-2.5-1.125-2.5-2.5v-15c0-1.375 1.125-2.5 2.5-2.5h25c1.375 0 2.5 1.125 2.5 2.5z"></path>
</svg>